<?xml version="1.0" standalone="no"?>
<!DOCTYPE svg PUBLIC "-//W3C//DTD SVG 20010904//EN"
 "http://www.w3.org/TR/2001/REC-SVG-20010904/DTD/svg10.dtd">
<svg version="1.0" xmlns="http://www.w3.org/2000/svg"
 width="894.000000pt" height="894.000000pt" viewBox="0 0 894.000000 894.000000"
 preserveAspectRatio="xMidYMid meet">
<metadata>
Created by potrace 1.11, written by Peter Selinger 2001-2013
</metadata>
<g transform="translate(0.000000,894.000000) scale(0.100000,-0.100000)"
fill="#000000" stroke="none">
<path d="M2478 7755 c-2 -2 -28 -5 -58 -8 -78 -8 -175 -26 -205 -37 -14 -5
-25 -8 -25 -5 0 2 -29 -7 -65 -20 -36 -13 -65 -22 -65 -20 0 2 -46 -17 -103
-43 -114 -52 -237 -122 -237 -134 0 -4 -5 -8 -11 -8 -31 0 -245 -192 -328
-294 -195 -240 -305 -488 -359 -807 -10 -60 -9 -391 1 -459 17 -110 77 -330
97 -355 5 -5 8 -12 8 -15 1 -22 86 -196 115 -234 4 -6 22 -34 40 -62 54 -84
96 -134 214 -253 l114 -113 -40 -117 c-35 -103 -57 -176 -66 -221 -2 -8 -4
-15 -5 -15 -1 0 -3 -8 -5 -19 -2 -10 -8 -39 -14 -65 -6 -25 -13 -59 -16 -76
-2 -16 -7 -41 -10 -55 -6 -31 -13 -83 -23 -175 -8 -83 -8 -488 1 -560 3 -27 9
-75 12 -105 8 -67 63 -323 77 -359 5 -14 11 -33 13 -42 16 -80 129 -371 157
-406 6 -7 7 -13 4 -13 -4 0 1 -12 11 -27 10 -16 29 -50 43 -78 13 -27 27 -52
31 -55 3 -3 12 -20 20 -37 8 -18 17 -33 20 -33 4 0 9 -8 13 -17 5 -18 26 -53
36 -63 3 -3 23 -32 45 -65 22 -33 44 -65 50 -72 5 -6 35 -44 65 -83 55 -71 70
-89 179 -205 50 -54 129 -128 226 -214 49 -44 195 -154 275 -207 165 -111 362
-213 585 -304 38 -16 140 -52 155 -55 8 -2 29 -8 45 -15 36 -14 296 -79 345
-86 19 -2 55 -9 80 -13 25 -5 52 -9 60 -9 8 0 29 -2 45 -5 114 -21 542 -30
678 -14 32 4 79 9 105 12 26 3 72 10 102 15 30 5 73 12 95 16 22 3 43 8 46 10
3 2 19 6 36 8 94 17 387 105 467 140 124 55 146 64 146 58 0 -4 4 -2 8 3 4 6
39 26 77 44 202 95 456 263 644 426 44 38 266 261 304 305 63 73 205 264 218
293 7 15 16 27 20 27 4 0 11 9 14 20 3 11 12 26 18 33 32 34 157 282 211 417
88 218 140 415 180 680 26 171 26 525 1 705 -15 110 -28 187 -38 225 -4 14 -9
36 -11 50 -8 46 -46 178 -75 264 -25 76 -26 86 -12 91 9 3 30 18 48 33 18 15
41 34 53 43 75 59 188 180 258 279 26 36 49 67 52 70 15 14 101 175 132 250
35 81 80 221 92 285 4 17 9 41 11 55 3 14 8 45 11 70 3 25 7 61 9 80 5 45 6
256 1 295 -21 158 -18 140 -30 190 -41 173 -98 321 -174 454 -30 52 -60 101
-68 109 -8 7 -14 17 -14 22 0 5 -6 15 -13 22 -7 7 -23 28 -36 46 -60 86 -175
194 -351 332 -35 27 -193 116 -221 125 -13 4 -32 15 -43 24 -10 9 -21 15 -25
15 -3 -1 -10 0 -16 2 -84 30 -209 66 -267 78 -215 44 -463 41 -675 -9 -37 -9
-72 -18 -78 -19 -5 -1 -14 -4 -20 -7 -5 -4 -23 -10 -40 -14 -40 -11 -37 -10
-125 -48 -14 -6 -27 -11 -30 -12 -11 -3 -99 -50 -155 -83 -159 -95 -335 -254
-453 -409 -34 -45 -62 -85 -62 -88 0 -4 -13 -25 -29 -48 -29 -43 -104 -194
-116 -235 -7 -24 -43 -44 -60 -34 -5 3 -16 7 -25 8 -136 14 -220 18 -400 17
-118 0 -243 -4 -277 -7 -62 -7 -62 -7 -69 20 -4 14 -29 70 -56 123 -28 53 -55
106 -62 118 -6 13 -14 23 -18 23 -5 0 -8 5 -8 10 0 6 -5 16 -10 23 -6 7 -34
44 -62 82 -57 77 -200 223 -263 270 -22 17 -42 32 -45 36 -18 20 -239 157
-265 163 -5 2 -32 13 -60 25 -113 51 -297 102 -425 117 -53 6 -297 13 -302 9z
m322 -260 c460 -88 798 -330 1004 -719 40 -76 42 -82 24 -83 -24 -2 -93 -15
-101 -20 -5 -3 -23 -7 -40 -10 -18 -3 -49 -11 -70 -18 l-38 -13 -35 54 c-160
249 -385 411 -683 490 -82 22 -153 29 -286 28 -108 -1 -141 -4 -224 -19 -69
-12 -207 -63 -291 -107 -309 -161 -522 -456 -568 -788 -8 -59 -8 -201 1 -270
9 -75 50 -215 86 -292 31 -64 72 -139 81 -148 3 -3 27 -32 52 -65 26 -33 68
-80 93 -104 52 -48 52 -40 -2 -131 -14 -25 -35 -58 -45 -75 -10 -16 -23 -42
-29 -57 -6 -16 -15 -28 -21 -28 -25 0 -258 262 -258 290 0 6 -4 10 -10 10 -5
0 -10 4 -10 9 0 5 -16 34 -35 66 -62 104 -131 294 -150 415 -4 25 -9 54 -12
65 -8 35 -10 309 -2 345 4 19 10 55 14 79 9 60 50 200 81 274 31 75 76 161 87
165 4 2 7 8 7 14 0 13 54 91 113 163 95 115 220 223 352 302 71 42 255 127
255 117 0 -2 10 1 22 7 12 6 49 18 82 26 84 20 95 22 146 29 25 3 46 7 48 9 6
6 327 -3 362 -10z m3750 1 c14 -3 45 -9 70 -12 61 -8 236 -66 318 -105 301
-144 542 -392 667 -689 15 -36 31 -74 36 -85 9 -23 37 -120 44 -156 3 -13 8
-35 11 -49 18 -87 25 -315 11 -417 -10 -78 -36 -192 -47 -214 -6 -10 -9 -19
-6 -19 7 0 -50 -142 -83 -207 -58 -116 -154 -245 -256 -347 -57 -55 -116 -109
-133 -119 l-31 -18 -45 88 c-25 48 -55 105 -67 125 l-23 37 30 23 c56 44 214
208 214 223 0 3 7 13 16 24 65 75 144 274 166 417 14 87 16 260 4 314 -3 14
-10 45 -15 70 -18 87 -65 202 -122 300 -44 77 -160 209 -244 280 -143 120
-358 211 -565 239 -66 9 -274 7 -320 -2 -14 -3 -43 -8 -65 -12 -51 -7 -206
-60 -270 -92 -188 -94 -378 -272 -465 -437 -28 -52 -21 -51 -140 -17 -50 15
-49 15 -103 26 -20 4 -39 10 -42 14 -12 20 119 240 202 338 276 326 651 496
1078 488 83 -1 161 -5 175 -9z m-3865 -540 c179 -18 317 -70 461 -172 72 -51
206 -192 202 -212 -2 -8 -37 -28 -78 -44 -95 -37 -233 -99 -240 -107 -3 -3
-49 -28 -103 -56 -54 -27 -105 -58 -114 -67 -9 -10 -24 -18 -34 -18 -9 0 -19
-4 -21 -8 -4 -10 -137 -102 -148 -102 -4 0 -10 -3 -12 -8 -1 -4 -35 -32 -74
-62 -167 -129 -381 -341 -486 -482 -24 -32 -45 -57 -48 -58 -12 0 -99 88 -138
141 -194 259 -204 594 -28 867 22 34 44 62 48 62 4 0 8 5 8 10 0 19 106 116
175 161 120 79 179 103 350 145 11 2 61 7 110 10 50 4 92 8 94 10 2 2 7 2 10
0 3 -2 33 -7 66 -10z m3777 0 c261 -27 512 -175 650 -384 74 -112 126 -263
130 -377 2 -56 -12 -197 -21 -214 -7 -11 -9 -21 -6 -21 6 0 -20 -68 -53 -139
-46 -96 -147 -218 -241 -289 l-33 -26 -24 29 c-140 173 -189 229 -277 317
-126 126 -195 186 -312 275 -202 153 -431 285 -662 383 l-53 22 38 53 c115
161 279 278 471 335 94 28 100 29 196 36 44 4 81 8 83 9 1 1 13 1 25 0 12 -2
52 -6 89 -9z m-1861 -460 c70 -3 133 -8 140 -11 8 -2 39 -7 69 -10 30 -4 62
-7 70 -9 92 -15 143 -24 148 -25 1 -1 3 -1 5 -1 1 -1 20 -5 42 -11 22 -5 53
-12 70 -15 55 -11 319 -101 420 -144 105 -45 261 -125 329 -168 23 -14 41 -24
41 -22 0 3 175 -117 210 -144 66 -51 145 -115 174 -141 65 -58 173 -166 170
-169 -2 -2 -35 12 -74 30 -71 35 -206 82 -260 91 -16 2 -59 10 -95 17 -65 14
-417 14 -490 1 -183 -32 -268 -56 -390 -108 -123 -53 -283 -150 -365 -222
-174 -153 -281 -292 -371 -481 -47 -99 -48 -101 -61 -77 -7 14 -13 30 -13 35
0 24 -114 237 -167 310 -62 86 -197 227 -244 255 -16 10 -29 21 -29 25 0 4 -5
8 -10 8 -6 0 -19 8 -30 18 -17 15 -177 106 -190 107 -10 1 -105 39 -115 45 -5
4 -21 10 -35 13 -14 3 -50 12 -82 21 -158 43 -376 69 -578 67 -87 -1 -129 -5
-245 -26 -50 -9 -136 -35 -200 -61 l-60 -23 85 80 c47 44 110 99 140 122 30
23 61 48 68 55 71 66 456 289 602 347 202 80 434 151 559 171 18 3 43 8 55 10
28 7 55 11 124 18 31 4 82 10 112 14 30 4 85 7 122 7 38 0 68 2 68 5 0 6 102
4 281 -4z m-1141 -1052 c373 -149 652 -490 718 -879 9 -54 9 -310 0 -360 -24
-127 -55 -219 -112 -330 -71 -140 -199 -292 -326 -388 -72 -54 -158 -107 -175
-107 -8 0 -15 -4 -15 -8 0 -8 -20 -17 -142 -62 -43 -16 -78 -26 -78 -23 0 3
-6 1 -12 -4 -7 -5 -24 -10 -38 -11 l-25 -3 1 1118 c1 615 2 1119 3 1119 3 3
159 -45 201 -62z m-755 -1063 l0 -1108 -60 19 c-33 11 -64 20 -70 22 -39 11
-135 56 -166 77 -14 10 -28 16 -31 13 -3 -2 -11 2 -18 11 -7 8 -16 15 -21 15
-26 0 -207 159 -279 245 -67 79 -190 299 -190 338 0 7 -4 17 -9 22 -5 6 -12
24 -15 40 -3 17 -13 66 -22 110 -21 103 -21 316 0 410 8 39 27 104 41 145 15
41 29 85 32 98 3 12 9 22 13 22 4 0 10 10 14 23 11 47 134 215 216 297 85 85
205 173 310 226 64 32 243 95 250 87 3 -2 5 -503 5 -1112z m2845 4 l0 -1115
-22 4 c-82 15 -316 114 -359 152 -8 8 -21 14 -27 14 -7 0 -12 4 -12 8 0 4 -13
15 -28 24 -45 27 -131 106 -202 185 -107 119 -219 343 -245 488 -2 17 -8 41
-11 55 -4 14 -8 87 -10 162 -4 142 16 288 51 372 8 20 13 36 10 36 -9 0 106
217 126 239 11 11 17 21 13 21 -10 0 85 109 151 173 69 67 223 172 310 212 33
15 69 31 80 36 25 12 145 47 163 48 9 1 12 -228 12 -1114z m636 1093 c38 -12
74 -22 80 -24 6 -1 48 -21 95 -44 98 -49 198 -114 253 -164 21 -20 42 -36 47
-36 4 0 12 -6 16 -14 4 -8 26 -34 48 -58 23 -23 56 -65 75 -93 19 -27 37 -52
40 -55 13 -12 50 -82 50 -96 0 -8 3 -14 8 -14 4 0 15 -19 24 -43 33 -82 41
-102 43 -112 2 -5 8 -30 15 -55 36 -131 46 -309 26 -445 -4 -27 -9 -59 -11
-70 -6 -41 -65 -206 -96 -267 -52 -105 -120 -198 -209 -288 -97 -98 -107 -106
-204 -169 -91 -58 -224 -120 -306 -141 -25 -6 -53 -13 -62 -16 -17 -5 -18 53
-18 1110 0 650 4 1116 9 1116 5 0 40 -10 77 -22z m-1776 -1582 c0 -24 91 -196
142 -271 62 -90 168 -209 237 -266 29 -24 59 -49 65 -54 12 -11 47 -35 110
-77 l41 -27 -588 -3 c-323 -2 -592 -1 -597 0 -13 5 -13 22 1 22 35 0 289 225
359 318 14 19 30 39 35 45 21 24 65 97 65 107 0 5 4 10 8 10 4 0 30 47 57 105
46 98 65 124 65 91z m2793 -58 c-4 -110 -13 -254 -18 -278 -3 -14 -8 -45 -11
-70 -7 -64 -54 -273 -63 -283 -4 -4 -122 -6 -262 -5 -211 3 -250 5 -229 16
140 70 342 250 438 390 23 35 42 65 42 67 0 2 14 27 30 55 17 28 30 55 30 60
0 10 38 100 42 100 2 0 2 -24 1 -52z m-5516 -106 c83 -183 252 -370 444 -488
33 -21 57 -39 55 -42 -3 -2 -38 -4 -78 -4 -40 0 -144 1 -230 1 l-156 1 -22 93
c-12 50 -23 101 -25 112 -30 185 -34 225 -39 360 -3 71 -1 85 7 65 6 -14 26
-58 44 -98z m751 -797 c-6 -11 -26 -44 -44 -73 -19 -29 -34 -56 -34 -61 0 -5
-4 -11 -8 -13 -4 -1 -35 -46 -67 -98 -33 -52 -62 -97 -66 -100 -3 -3 -9 -12
-12 -20 -4 -8 -17 -31 -30 -50 -12 -19 -33 -52 -46 -72 -12 -21 -26 -38 -29
-38 -4 0 -20 21 -37 48 -16 26 -32 49 -35 52 -4 3 -9 12 -13 20 -4 8 -18 33
-31 55 -37 59 -164 316 -171 346 l-6 25 319 0 c317 -1 320 -1 310 -21z m1226
6 c-3 -9 -7 -23 -9 -31 -2 -8 -12 -42 -23 -75 -11 -33 -52 -161 -92 -285 -40
-124 -85 -265 -102 -315 -16 -49 -33 -103 -38 -120 -9 -33 -107 -341 -116
-365 -5 -13 -23 28 -38 85 -3 13 -70 222 -106 335 -40 121 -112 353 -114 365
-1 6 -8 21 -16 35 -7 14 -12 25 -10 25 4 0 -2 19 -47 160 -19 61 -36 117 -38
125 -2 8 -8 28 -14 43 -6 16 -11 29 -11 30 0 2 176 3 390 3 350 0 390 -1 384
-15z m1201 7 c4 -4 5 -14 2 -23 -4 -8 -7 -17 -7 -20 0 -3 -7 -23 -15 -46 -9
-23 -17 -51 -20 -63 -2 -12 -18 -66 -35 -121 -17 -55 -33 -108 -35 -118 -2
-10 -18 -64 -35 -120 -34 -109 -41 -133 -45 -151 -1 -6 -5 -18 -8 -26 -4 -8
-15 -46 -26 -85 -11 -38 -38 -133 -61 -210 -109 -367 -110 -370 -117 -407 -5
-25 -22 -40 -24 -20 -2 17 -58 234 -85 327 -8 28 -14 52 -14 55 0 3 -7 30 -16
60 -9 30 -17 62 -19 70 -3 12 -44 172 -96 370 -5 19 -11 42 -13 50 -3 8 -21
78 -41 155 -20 77 -40 156 -45 175 -4 19 -12 47 -18 61 -6 15 -8 29 -6 32 3 3
1 15 -6 26 -6 12 -9 25 -6 29 6 10 782 10 791 0z m1109 2 c3 -3 -8 -46 -25
-95 -17 -50 -32 -97 -34 -106 -2 -8 -10 -32 -19 -53 -9 -21 -18 -48 -21 -60
-4 -20 -69 -214 -82 -246 -3 -8 -7 -19 -8 -25 -7 -27 -177 -530 -183 -542 -6
-10 -95 248 -117 337 -3 12 -35 118 -59 195 -2 6 -4 13 -5 17 -1 4 -9 27 -17
50 -9 24 -18 52 -20 63 -8 30 -8 33 -43 145 -18 58 -34 110 -35 115 -2 6 -4
12 -5 15 -1 3 -15 45 -30 95 -16 49 -28 92 -26 96 5 7 721 6 729 -1z m1056 4
c0 -1 -16 -38 -34 -83 -55 -127 -173 -343 -216 -396 -10 -11 -20 -28 -23 -37
-9 -24 -24 -23 -38 4 -6 12 -20 31 -30 42 -11 11 -19 23 -19 28 0 4 -34 60
-76 125 -43 65 -105 161 -140 215 -34 53 -61 98 -58 100 4 4 634 6 634 2z
m-632 -495 c84 -147 152 -271 152 -277 0 -12 -168 -183 -245 -250 -66 -57
-263 -206 -295 -222 -14 -7 -27 -16 -30 -20 -6 -9 -164 -100 -167 -97 -2 3 31
99 139 402 27 77 51 145 52 150 2 6 6 17 9 25 3 8 23 67 45 130 38 110 136
388 154 439 11 31 -3 52 186 -280z m-3768 253 c0 -10 4 -22 8 -27 5 -6 15 -30
22 -55 7 -25 16 -49 19 -55 3 -5 6 -14 7 -20 1 -5 10 -30 19 -55 33 -89 263
-734 269 -755 2 -5 6 -17 9 -25 25 -62 44 -120 40 -124 -3 -2 -27 9 -54 25
-28 16 -54 29 -59 29 -6 0 -10 4 -10 8 0 5 -12 15 -27 23 -55 28 -199 131
-302 217 -88 72 -351 340 -351 357 0 12 84 113 305 370 24 28 53 63 65 78 25
31 40 35 40 9z m1275 -306 c25 -87 47 -166 48 -175 1 -9 6 -22 10 -28 5 -7 10
-23 12 -34 3 -12 21 -79 41 -148 20 -69 37 -130 38 -136 1 -5 11 -37 21 -70
10 -33 19 -64 21 -70 1 -5 16 -59 34 -120 17 -60 33 -117 35 -125 2 -8 19 -68
38 -132 19 -65 32 -120 29 -122 -2 -3 -21 -3 -41 -1 -20 2 -61 7 -91 9 -76 7
-263 38 -320 53 -14 3 -28 6 -32 5 -4 -1 -19 3 -33 8 -14 5 -36 12 -49 14 -13
2 -69 19 -126 36 -111 36 -109 32 -78 107 6 15 13 36 15 46 1 10 10 31 18 47
9 17 15 32 15 35 1 9 7 28 43 130 19 55 38 111 42 125 4 14 13 39 20 55 7 17
25 64 38 105 14 41 38 109 53 150 46 130 125 355 128 365 7 26 20 48 22 39 2
-5 24 -81 49 -168z m1185 100 c5 -17 20 -69 35 -116 14 -47 28 -92 30 -100 2
-8 4 -15 5 -15 1 0 3 -7 5 -15 2 -8 25 -82 50 -165 49 -158 66 -214 110 -360
15 -49 31 -99 35 -110 13 -32 60 -192 60 -203 0 -29 -423 -139 -604 -157 -17
-2 -56 -7 -86 -10 -129 -15 -121 -16 -116 11 3 13 7 28 11 34 3 5 8 18 10 27
3 10 34 101 70 203 36 102 67 192 69 200 3 8 32 94 66 190 34 96 62 180 64
185 2 6 6 18 9 28 4 9 10 25 14 35 3 9 7 22 9 27 3 14 83 246 91 265 3 8 8 24
10 35 2 11 8 24 13 29 6 6 10 19 10 31 1 19 1 19 12 1 6 -11 14 -33 18 -50z"/>
</g>
</svg>
